<svg xmlns="http://www.w3.org/2000/svg" viewBox="0 0 65 66" width="65" height="66">
	<style>
		tspan { white-space:pre }
		.shp0 { fill: #ffffff } 
	</style>
	<path id="Diamond" class="shp0" d="M51.75 4.98L60.06 20.88L31.94 59.17L4.27 20.59L12.57 4.98L51.75 4.98M52.17 0.98L12.17 0.98C11.07 0.98 9.74 1.77 9.23 2.75L0.51 19.14C-0.01 20.11 0.09 21.63 0.73 22.53L30.74 64.35C31.06 64.8 31.49 65.03 31.91 65.03C32.34 65.03 32.76 64.81 33.09 64.36L63.58 22.85C64.23 21.96 64.35 20.44 63.84 19.47L55.09 2.75C54.58 1.78 53.27 0.98 52.17 0.98L52.17 0.98ZM60.42 22.98L2.42 22.98L2.42 18.98L60.42 18.98L60.42 22.98ZM30.02 60.61L11.27 4.11L15.06 2.85L33.81 59.35L30.02 60.61ZM33.96 60.18L30.18 58.86L50.28 1.32L54.06 2.64L33.96 60.18ZM21.14 22.12L17.86 19.83L30.39 1.83C30.76 1.31 31.35 0.99 31.98 0.97C32.59 0.98 33.22 1.24 33.61 1.75L47.08 19.08L43.92 21.54L32.12 6.35L21.14 22.12Z" />
</svg>