<svg xmlns="http://www.w3.org/2000/svg" viewBox="0 0 65 53" width="65" height="53">
	<style>
		tspan { white-space:pre }
		.shp0 { fill: #1b1b1b } 
	</style>
	<path id="Monitor" class="shp0" d="M61 4.98L61 38.99L5 38.99L5 4.98L61 4.98M61 0.98L5 0.98C2.8 0.98 1 2.78 1 4.98L1 38.99C1 41.19 2.8 42.99 5 42.99L61 42.99C63.2 42.99 65 41.19 65 38.99L65 4.98C65 2.78 63.2 0.98 61 0.98L61 0.98ZM35 41L35 49L45 49C46.1 49 47 49.9 47 51C47 52.1 46.1 53 45 53L21 53C19.9 53 19 52.1 19 51C19 49.9 19.9 49 21 49L31 49L31 41L35 41Z" />
</svg>