<svg xmlns="http://www.w3.org/2000/svg" viewBox="0 0 66 66" width="66" height="66">
	<style>
		tspan { white-space:pre }
		.shp0 { fill: #1b1b1b } 
	</style>
	<path id="Anchor" class="shp0" d="M33 65.19C19.76 65.19 8.62 55.29 7.07 42.16C6.95 41.06 7.73 40.07 8.83 39.94C9.92 39.8 10.92 40.59 11.05 41.69C12.35 52.81 21.79 61.19 33 61.19C44.19 61.19 53.63 52.82 54.95 41.73C55.08 40.63 56.07 39.84 57.17 39.98C58.27 40.11 59.06 41.1 58.92 42.2C57.36 55.31 46.22 65.19 33 65.19ZM33 64.68C31.89 64.68 31 63.79 31 62.68L31 17.56C31 16.45 31.89 15.56 33 15.56C34.1 15.56 35 16.45 35 17.56L35 62.68C35 63.79 34.1 64.68 33 64.68ZM33.03 4.94C35.27 4.94 37.09 6.76 37.09 9C37.09 11.24 35.27 13.06 33.03 13.06C30.79 13.06 28.97 11.24 28.97 9C28.97 6.76 30.79 4.94 33.03 4.94M33.03 0.94C28.58 0.94 24.97 4.55 24.97 9C24.97 13.45 28.58 17.06 33.03 17.06C37.48 17.06 41.09 13.45 41.09 9C41.09 4.55 37.48 0.94 33.03 0.94L33.03 0.94ZM57.4 40.16L49.49 45.54C48.81 45.97 47.89 45.95 47.48 45.25L47.07 44.8C46.67 44.1 46.89 43.18 47.57 42.74L56.67 36.6C56.68 36.59 56.69 36.58 56.7 36.57L57.32 36.17C57.66 35.95 58.05 35.9 58.4 35.99C58.76 36.07 59.09 36.3 59.29 36.65L59.66 37.28C59.67 37.3 59.66 37.31 59.67 37.32L64.81 46.78C65.22 47.48 65 48.39 64.32 48.83L63.75 49.05C63.07 49.48 62.23 49.09 61.82 48.39L57.4 40.16ZM8.6 40.16L16.51 45.54C17.19 45.97 18.11 45.95 18.52 45.25L18.93 44.8C19.33 44.1 19.11 43.18 18.43 42.74L9.33 36.6C9.32 36.59 9.31 36.58 9.3 36.57L8.68 36.17C8.34 35.95 7.95 35.9 7.6 35.99C7.24 36.07 6.91 36.3 6.71 36.65L6.34 37.28C6.33 37.3 6.34 37.31 6.33 37.32L1.19 46.78C0.78 47.48 1 48.39 1.68 48.83L2.25 49.05C2.93 49.48 3.77 49.09 4.17 48.39L8.6 40.16ZM23 17L43 17C44.1 17 45 17.89 45 19C45 20.1 44.1 21 43 21L23 21C21.9 21 21 20.1 21 19C21 17.89 21.9 17 23 17Z" />
</svg>